<mxfile host="app.diagrams.net" agent="Mozilla/5.0 (Windows NT 10.0; Win64; x64; rv:133.0) Gecko/20100101 Firefox/133.0" version="24.9.2">
  <diagram name="Página-1" id="EJe-e8zHz1_kUYX5vun4">
    <mxGraphModel grid="1" page="1" gridSize="10" guides="1" tooltips="1" connect="1" arrows="1" fold="1" pageScale="1" pageWidth="827" pageHeight="1169" math="0" shadow="0">
      <root>
        <mxCell id="0" />
        <mxCell id="1" parent="0" />
        <mxCell id="KmCS5FD7XscR7QmX_69T-1" value="" style="whiteSpace=wrap;html=1;aspect=fixed;" vertex="1" parent="1">
          <mxGeometry x="40" y="80" width="120" height="120" as="geometry" />
        </mxCell>
        <mxCell id="KmCS5FD7XscR7QmX_69T-2" value="TRANSACCIÓN" style="rounded=0;whiteSpace=wrap;html=1;" vertex="1" parent="1">
          <mxGeometry x="40" y="50" width="120" height="30" as="geometry" />
        </mxCell>
        <mxCell id="KmCS5FD7XscR7QmX_69T-3" value="&lt;div&gt;PK&lt;/div&gt;" style="text;html=1;align=center;verticalAlign=middle;resizable=0;points=[];autosize=1;strokeColor=none;fillColor=none;" vertex="1" parent="1">
          <mxGeometry x="40" y="80" width="40" height="30" as="geometry" />
        </mxCell>
        <mxCell id="KmCS5FD7XscR7QmX_69T-4" value="N.Transac." style="text;html=1;align=center;verticalAlign=middle;resizable=0;points=[];autosize=1;strokeColor=none;fillColor=none;" vertex="1" parent="1">
          <mxGeometry x="80" y="80" width="80" height="30" as="geometry" />
        </mxCell>
        <mxCell id="KmCS5FD7XscR7QmX_69T-5" value="FK" style="text;html=1;align=center;verticalAlign=middle;resizable=0;points=[];autosize=1;strokeColor=none;fillColor=none;" vertex="1" parent="1">
          <mxGeometry x="40" y="110" width="40" height="30" as="geometry" />
        </mxCell>
        <mxCell id="KmCS5FD7XscR7QmX_69T-7" value="DNI" style="text;html=1;align=center;verticalAlign=middle;resizable=0;points=[];autosize=1;strokeColor=none;fillColor=none;" vertex="1" parent="1">
          <mxGeometry x="80" y="110" width="40" height="30" as="geometry" />
        </mxCell>
        <mxCell id="KmCS5FD7XscR7QmX_69T-8" value="Fecha" style="text;html=1;align=center;verticalAlign=middle;resizable=0;points=[];autosize=1;strokeColor=none;fillColor=none;" vertex="1" parent="1">
          <mxGeometry x="75" y="140" width="60" height="30" as="geometry" />
        </mxCell>
        <mxCell id="KmCS5FD7XscR7QmX_69T-9" value="Cantidad" style="text;html=1;align=center;verticalAlign=middle;resizable=0;points=[];autosize=1;strokeColor=none;fillColor=none;" vertex="1" parent="1">
          <mxGeometry x="75" y="170" width="70" height="30" as="geometry" />
        </mxCell>
        <mxCell id="KmCS5FD7XscR7QmX_69T-10" value="" style="whiteSpace=wrap;html=1;aspect=fixed;" vertex="1" parent="1">
          <mxGeometry x="240" y="80" width="120" height="120" as="geometry" />
        </mxCell>
        <mxCell id="KmCS5FD7XscR7QmX_69T-11" value="CLIENTE" style="rounded=0;whiteSpace=wrap;html=1;" vertex="1" parent="1">
          <mxGeometry x="240" y="50" width="120" height="30" as="geometry" />
        </mxCell>
        <mxCell id="KmCS5FD7XscR7QmX_69T-12" value="&lt;div&gt;PK&lt;/div&gt;" style="text;html=1;align=center;verticalAlign=middle;resizable=0;points=[];autosize=1;strokeColor=none;fillColor=none;" vertex="1" parent="1">
          <mxGeometry x="240" y="80" width="40" height="30" as="geometry" />
        </mxCell>
        <mxCell id="KmCS5FD7XscR7QmX_69T-13" value="DNI" style="text;html=1;align=center;verticalAlign=middle;resizable=0;points=[];autosize=1;strokeColor=none;fillColor=none;" vertex="1" parent="1">
          <mxGeometry x="290" y="80" width="40" height="30" as="geometry" />
        </mxCell>
        <mxCell id="KmCS5FD7XscR7QmX_69T-15" value="Nombre" style="text;html=1;align=center;verticalAlign=middle;resizable=0;points=[];autosize=1;strokeColor=none;fillColor=none;" vertex="1" parent="1">
          <mxGeometry x="280" y="110" width="70" height="30" as="geometry" />
        </mxCell>
        <mxCell id="KmCS5FD7XscR7QmX_69T-16" value="Fecha" style="text;html=1;align=center;verticalAlign=middle;resizable=0;points=[];autosize=1;strokeColor=none;fillColor=none;" vertex="1" parent="1">
          <mxGeometry x="275" y="140" width="60" height="30" as="geometry" />
        </mxCell>
        <mxCell id="KmCS5FD7XscR7QmX_69T-17" value="Cantidad" style="text;html=1;align=center;verticalAlign=middle;resizable=0;points=[];autosize=1;strokeColor=none;fillColor=none;" vertex="1" parent="1">
          <mxGeometry x="275" y="170" width="70" height="30" as="geometry" />
        </mxCell>
        <mxCell id="KmCS5FD7XscR7QmX_69T-18" value="" style="whiteSpace=wrap;html=1;aspect=fixed;" vertex="1" parent="1">
          <mxGeometry x="440" y="80" width="120" height="120" as="geometry" />
        </mxCell>
        <mxCell id="KmCS5FD7XscR7QmX_69T-19" value="CUENTA" style="rounded=0;whiteSpace=wrap;html=1;" vertex="1" parent="1">
          <mxGeometry x="440" y="50" width="120" height="30" as="geometry" />
        </mxCell>
        <mxCell id="KmCS5FD7XscR7QmX_69T-20" value="&lt;div&gt;PK&lt;/div&gt;" style="text;html=1;align=center;verticalAlign=middle;resizable=0;points=[];autosize=1;strokeColor=none;fillColor=none;" vertex="1" parent="1">
          <mxGeometry x="440" y="80" width="40" height="30" as="geometry" />
        </mxCell>
        <mxCell id="KmCS5FD7XscR7QmX_69T-21" value="N.Cuenta" style="text;html=1;align=center;verticalAlign=middle;resizable=0;points=[];autosize=1;strokeColor=none;fillColor=none;" vertex="1" parent="1">
          <mxGeometry x="470" y="80" width="80" height="30" as="geometry" />
        </mxCell>
        <mxCell id="KmCS5FD7XscR7QmX_69T-22" value="DNI" style="text;html=1;align=center;verticalAlign=middle;resizable=0;points=[];autosize=1;strokeColor=none;fillColor=none;" vertex="1" parent="1">
          <mxGeometry x="480" y="110" width="40" height="30" as="geometry" />
        </mxCell>
        <mxCell id="KmCS5FD7XscR7QmX_69T-23" value="N.Sucursal" style="text;html=1;align=center;verticalAlign=middle;resizable=0;points=[];autosize=1;strokeColor=none;fillColor=none;" vertex="1" parent="1">
          <mxGeometry x="475" y="140" width="80" height="30" as="geometry" />
        </mxCell>
        <mxCell id="KmCS5FD7XscR7QmX_69T-24" value="Saldo" style="text;html=1;align=center;verticalAlign=middle;resizable=0;points=[];autosize=1;strokeColor=none;fillColor=none;" vertex="1" parent="1">
          <mxGeometry x="475" y="170" width="60" height="30" as="geometry" />
        </mxCell>
        <mxCell id="KmCS5FD7XscR7QmX_69T-25" value="FK1" style="text;html=1;align=center;verticalAlign=middle;resizable=0;points=[];autosize=1;strokeColor=none;fillColor=none;" vertex="1" parent="1">
          <mxGeometry x="435" y="110" width="50" height="30" as="geometry" />
        </mxCell>
        <mxCell id="KmCS5FD7XscR7QmX_69T-26" value="FK2" style="text;html=1;align=center;verticalAlign=middle;resizable=0;points=[];autosize=1;strokeColor=none;fillColor=none;" vertex="1" parent="1">
          <mxGeometry x="435" y="140" width="50" height="30" as="geometry" />
        </mxCell>
        <mxCell id="KmCS5FD7XscR7QmX_69T-27" value="" style="whiteSpace=wrap;html=1;aspect=fixed;" vertex="1" parent="1">
          <mxGeometry x="635" y="80" width="120" height="120" as="geometry" />
        </mxCell>
        <mxCell id="KmCS5FD7XscR7QmX_69T-28" value="SUCURSAL" style="rounded=0;whiteSpace=wrap;html=1;" vertex="1" parent="1">
          <mxGeometry x="635" y="50" width="120" height="30" as="geometry" />
        </mxCell>
        <mxCell id="KmCS5FD7XscR7QmX_69T-29" value="&lt;div&gt;PK&lt;/div&gt;" style="text;html=1;align=center;verticalAlign=middle;resizable=0;points=[];autosize=1;strokeColor=none;fillColor=none;" vertex="1" parent="1">
          <mxGeometry x="635" y="80" width="40" height="30" as="geometry" />
        </mxCell>
        <mxCell id="KmCS5FD7XscR7QmX_69T-30" value="N.Sucursal" style="text;html=1;align=center;verticalAlign=middle;resizable=0;points=[];autosize=1;strokeColor=none;fillColor=none;" vertex="1" parent="1">
          <mxGeometry x="675" y="80" width="80" height="30" as="geometry" />
        </mxCell>
        <mxCell id="KmCS5FD7XscR7QmX_69T-31" value="Nombre" style="text;html=1;align=center;verticalAlign=middle;resizable=0;points=[];autosize=1;strokeColor=none;fillColor=none;" vertex="1" parent="1">
          <mxGeometry x="675" y="110" width="70" height="30" as="geometry" />
        </mxCell>
        <mxCell id="KmCS5FD7XscR7QmX_69T-32" value="Dirección" style="text;html=1;align=center;verticalAlign=middle;resizable=0;points=[];autosize=1;strokeColor=none;fillColor=none;" vertex="1" parent="1">
          <mxGeometry x="670" y="140" width="80" height="30" as="geometry" />
        </mxCell>
        <mxCell id="KmCS5FD7XscR7QmX_69T-36" style="edgeStyle=orthogonalEdgeStyle;rounded=0;orthogonalLoop=1;jettySize=auto;html=1;exitX=1;exitY=0.75;exitDx=0;exitDy=0;entryX=0.05;entryY=0.5;entryDx=0;entryDy=0;entryPerimeter=0;" edge="1" parent="1" source="KmCS5FD7XscR7QmX_69T-18" target="KmCS5FD7XscR7QmX_69T-29">
          <mxGeometry relative="1" as="geometry">
            <Array as="points">
              <mxPoint x="560" y="150" />
              <mxPoint x="598" y="150" />
              <mxPoint x="598" y="95" />
            </Array>
          </mxGeometry>
        </mxCell>
        <mxCell id="KmCS5FD7XscR7QmX_69T-37" style="edgeStyle=orthogonalEdgeStyle;rounded=0;orthogonalLoop=1;jettySize=auto;html=1;exitX=0;exitY=0.75;exitDx=0;exitDy=0;entryX=1.025;entryY=0.108;entryDx=0;entryDy=0;entryPerimeter=0;" edge="1" parent="1" source="KmCS5FD7XscR7QmX_69T-18" target="KmCS5FD7XscR7QmX_69T-10">
          <mxGeometry relative="1" as="geometry">
            <Array as="points">
              <mxPoint x="440" y="120" />
              <mxPoint x="400" y="120" />
              <mxPoint x="400" y="93" />
            </Array>
          </mxGeometry>
        </mxCell>
        <mxCell id="KmCS5FD7XscR7QmX_69T-38" style="edgeStyle=orthogonalEdgeStyle;rounded=0;orthogonalLoop=1;jettySize=auto;html=1;exitX=1;exitY=0.5;exitDx=0;exitDy=0;entryX=0.1;entryY=0.5;entryDx=0;entryDy=0;entryPerimeter=0;" edge="1" parent="1" source="KmCS5FD7XscR7QmX_69T-1" target="KmCS5FD7XscR7QmX_69T-12">
          <mxGeometry relative="1" as="geometry">
            <Array as="points">
              <mxPoint x="160" y="120" />
              <mxPoint x="200" y="120" />
              <mxPoint x="200" y="95" />
            </Array>
          </mxGeometry>
        </mxCell>
      </root>
    </mxGraphModel>
  </diagram>
</mxfile>
